<svg width="21" height="18" viewBox="0 0 21 18" fill="none" xmlns="http://www.w3.org/2000/svg">
<path d="M18.41 2.00001C17.35 0.93722 15.9448 0.288553 14.4484 0.171183C12.9519 0.0538127 11.4628 0.475479 10.25 1.36001C8.97769 0.41365 7.39402 -0.0154759 5.81795 0.15905C4.24188 0.333576 2.79047 1.09879 1.756 2.3006C0.721538 3.5024 0.180854 5.05153 0.242833 6.63603C0.304811 8.22052 0.964849 9.72268 2.09003 10.84L8.30003 17.06C8.82005 17.5718 9.52042 17.8586 10.25 17.8586C10.9796 17.8586 11.68 17.5718 12.2 17.06L18.41 10.84C19.5776 9.66528 20.233 8.07629 20.233 6.42001C20.233 4.76374 19.5776 3.17475 18.41 2.00001ZM17 9.46001L10.79 15.67C10.7194 15.7414 10.6353 15.798 10.5426 15.8367C10.4499 15.8753 10.3505 15.8952 10.25 15.8952C10.1496 15.8952 10.0502 15.8753 9.95749 15.8367C9.8648 15.798 9.7807 15.7414 9.71003 15.67L3.50003 9.43001C2.71579 8.62836 2.27664 7.55148 2.27664 6.43001C2.27664 5.30855 2.71579 4.23167 3.50003 3.43001C4.29919 2.641 5.377 2.19858 6.50003 2.19858C7.62306 2.19858 8.70088 2.641 9.50003 3.43001C9.59299 3.52374 9.7036 3.59814 9.82545 3.6489C9.94731 3.69967 10.078 3.72581 10.21 3.72581C10.342 3.72581 10.4727 3.69967 10.5946 3.6489C10.7165 3.59814 10.8271 3.52374 10.92 3.43001C11.7192 2.641 12.797 2.19858 13.92 2.19858C15.0431 2.19858 16.1209 2.641 16.92 3.43001C17.7151 4.22116 18.1686 5.2922 18.1836 6.4137C18.1985 7.53519 17.7737 8.61795 17 9.43001V9.46001Z" fill="#868E96"/>
</svg>
